<?xml version="1.0" encoding="utf-8"?>
<!-- Generator: Adobe Illustrator 18.1.1, SVG Export Plug-In . SVG Version: 6.00 Build 0)  -->
<!DOCTYPE svg PUBLIC "-//W3C//DTD SVG 1.1//EN" "http://www.w3.org/Graphics/SVG/1.1/DTD/svg11.dtd">
<svg version="1.1" id="Layer_1" xmlns="http://www.w3.org/2000/svg" xmlns:xlink="http://www.w3.org/1999/xlink" x="0px" y="0px"
	 viewBox="0 0 1157.4 187.5" enable-background="new 0 0 1157.4 187.5" xml:space="preserve">
<path fill="#3FAAFF" stroke="#0C93FF" stroke-width="10" stroke-miterlimit="10" d="M90.4,115.2l-28.6,49.5l-28.4-49v49H5V18.4
	l56.8,96.8l56.8-96.8v146.3H90.3L90.4,115.2z"/>
<path fill="#3FAAFF" stroke="#0C93FF" stroke-width="10" stroke-miterlimit="10" d="M240,162.5l-13.7-30.9h-46.1l-15,33.2H135
	l68.2-146.4l68.2,146.4H241L240,162.5z M191.3,106.7h24.3L203.5,79L191.3,106.7z"/>
<path fill="#3FAAFF" stroke="#0C93FF" stroke-width="10" stroke-miterlimit="10" d="M375.9,66.4c-11.1-9.5-23.5-14.2-37.2-14.2
	c-13,0-23.5,4.1-31.6,12.4c-8.1,8.3-12.1,19.1-12.1,32.5c0,12.9,4,23.5,11.9,31.8c7.9,8.2,17.8,12.3,29.7,12.3
	c10.7,0,20.7-2.9,29.9-8.6c2.9-1.8,5.5-3.7,7.9-5.7c2.4-2,4.9-4.1,7.5-6.3v33.7l-1.5,1.1c-6.2,4.4-12.7,7.6-19.5,9.5
	c-7.3,2.1-14.7,3.2-22.4,3.2c-4.9,0-9.9-0.4-15-1.3c-19.9-3.4-35.2-13.2-46-29.5c-7.9-11.8-11.9-25.3-11.9-40.4c0-15,4-28.5,12-40.3
	c8.1-12.1,18.8-20.7,32.2-25.9c8.8-3.5,18-5.3,27.4-5.3c4,0,8.2,0.3,12.4,1c11.2,1.8,21.9,6.1,32.1,13.1l1.7,1.2l-1.6,30.7
	L375.9,66.4z"/>
<path fill="#3FAAFF" stroke="#0C93FF" stroke-width="10" stroke-miterlimit="10" d="M399.7,28.5H428V76h55.8V28.5h28.4v136.2h-28.4
	v-62.6H428v62.6h-28.4V28.5z"/>
<path fill="#3FAAFF" stroke="#0C93FF" stroke-width="10" stroke-miterlimit="10" d="M528.6,28.5H557v136.2h-28.5V28.5z"/>
<path fill="#3FAAFF" stroke="#0C93FF" stroke-width="10" stroke-miterlimit="10" d="M573.4,18.4l85.3,87.8V28.5h28.4v146.2
	l-85.2-91.4v81.3h-28.5V18.4z"/>
<path fill="#3FAAFF" stroke="#0C93FF" stroke-width="10" stroke-miterlimit="10" d="M808.4,162.5l-13.7-30.9h-46.1l-15,33.2h-30.3
	l68.2-146.4l68.2,146.4h-30.4L808.4,162.5z M759.7,106.7H784L771.8,79L759.7,106.7z"/>
<path fill="none" stroke="#D6F6FF" stroke-width="10" stroke-miterlimit="10" d="M856,28.5h36.2c3.5,0,7.2,0.1,11.1,0.3
	c3.9,0.2,7.3,0.6,10.3,1.3c10.8,2.4,18.5,8.6,23.1,18.5c2.5,5.5,3.8,11.1,3.8,16.9c0,3.6-0.5,7.2-1.5,10.9
	c-1.9,6.7-5.5,11.9-10.8,15.6c0.2,0.1,0.8,0.4,1.7,0.9c3.4,2.1,6.3,4.7,8.8,7.8c2.4,3.2,4.2,6.8,5.4,10.8c1.2,4,1.8,8.3,1.8,12.9
	c0,5.7-1,11.1-3,16.2c-4.4,11.4-12.2,18.7-23.3,21.8c-3.6,1-7.9,1.7-13.1,1.9s-9.9,0.4-14.3,0.4H856V28.5z M884.1,82.9
	c5.6,0,11.7-0.2,18.2-0.7c6.4-0.4,9.6-4.8,9.6-13.1v-0.3c-0.1-8.5-3.2-13.1-9.2-14c-6-0.9-12.2-1.3-18.6-1.3V82.9z M884.1,139.7
	c3.1,0,6.5,0,10-0.1c3.5-0.1,6.6-0.3,9.3-0.7c1.9-0.3,3.3-0.7,4.2-1.1v0.1c2.3-0.8,4.2-2.1,5.6-3.8c0.6-0.6,1.3-1.6,2.1-3.1
	c1.3-2.7,2-5.4,2-8.1c0-3-0.8-5.9-2.4-8.7c-1.5-2.4-3.4-4.3-5.8-5.6c-1.8-0.8-3.7-1.4-5.7-1.8c-2.5-0.4-5.7-0.6-9.5-0.6h-9.8V139.7z
	"/>
<path fill="none" stroke="#D6F6FF" stroke-width="10" stroke-miterlimit="10" d="M962.4,28.5h28.5v136.2h-28.5V28.5z"/>
<path fill="none" stroke="#D6F6FF" stroke-width="10" stroke-miterlimit="10" d="M1152.4,96.8c0,9.6-1.8,18.7-5.4,27.5
	c-1.8,4.1-4,8.2-6.7,12.1c-8.3,12-19.2,20.8-32.8,26.3c-8.9,3.6-18.1,5.4-27.4,5.4c-4.8,0-9.6-0.5-14.5-1.5
	c-9.7-1.9-18.4-5.4-26.1-10.6c-3.6-2.3-7.3-5.2-11-8.8c-7-6.7-12.2-14.4-15.8-22.9c-3.7-8.7-5.5-17.8-5.5-27.2
	c0-2.4,0.1-4.8,0.4-7.3c1.1-12,5.1-22.9,11.8-32.7c5.4-7.9,12.1-14.4,20.2-19.8v-0.1c12-7.8,25.4-11.7,40.3-11.7
	c14.6,0,28,3.9,40.2,11.7c8,5.3,14.8,12,20.2,19.9C1148.4,69.3,1152.4,82.4,1152.4,96.8z M1123,96.8c0-6.1-1.1-11.8-3.3-17
	c-4.7-11.4-12.5-19.4-23.3-24c-5.6-2.4-11.2-3.5-16.8-3.5c-5.5,0-11,1.1-16.5,3.4c-0.9,0.4-2.2,1.1-3.9,2c-1.7,0.9-2.9,1.6-3.6,2.2
	c-2.1,1.4-4.3,3.2-6.5,5.4v0.1c-2,2-3.8,4.2-5.4,6.6c-1.5,2.3-2.8,4.9-4,7.7c-2.2,5.4-3.3,11.1-3.3,17c0,1.5,0.1,2.9,0.2,4.4
	c0.7,7.5,3,14.3,7.1,20.5c5,7.6,11.4,13,19.4,16.4c5.8,2.5,11.5,3.7,17,3.7c8.1,0,15.9-2.6,23.5-7.9
	C1116.6,125,1123,112.7,1123,96.8z"/>
</svg>
